# xmcd
#
# Track frame offsets: 
#        150
#        16644
#        37329
#        58287
#        73973
#        89657
#        98675
#        115576
#        132458
#        146826
#        159928
#
# Disc length: 2508 seconds
#
# Revision: 0
# Processed by: cddbd v1.5.2PL0 Copyright (c) Steve Scherf et al.
# Submitted via: ExactAudioCopy v1.2
#
DISCID=9e09ca0b
DTITLE=Little Miss Higgins - My Home, My Heart
DYEAR=2017
DGENRE=Blues
TTITLE0=Put The Needle On
TTITLE1=Drawn To You
TTITLE2=Swept Away
TTITLE3=My Home, My Heart
TTITLE4=ABC Blues
TTITLE5=Belly Full Of Baby
TTITLE6=Cow Cow Boogie
TTITLE7=Top Of The Mountain
TTITLE8=Little Joe’s Lullaby
TTITLE9=Full Contact Sport
TTITLE10=Radville (Revisited)
EXTD=
EXTT0=
EXTT1=
EXTT2=
EXTT3=
EXTT4=
EXTT5=
EXTT6=
EXTT7=
EXTT8=
EXTT9=
EXTT10=
PLAYORDER=
